Coordinates
version=1
nRows=19
nColumns=36
inDegrees=yes

Units are S.I. units (second, meters, Newtons, ...)
If the header above contains a line with 'inDegrees', this indicates whether rotational values are in degrees (yes) or radians (no).

endheader
time	pelvis_tilt	pelvis_list	pelvis_rotation	pelvis_tx	pelvis_ty	pelvis_tz	hip_flexion_r	hip_adduction_r	hip_rotation_r	knee_angle_r	knee_angle_r_beta	ankle_angle_r	subtalar_angle_r	mtp_angle_r	hip_flexion_l	hip_adduction_l	hip_rotation_l	knee_angle_l	knee_angle_l_beta	ankle_angle_l	subtalar_angle_l	mtp_angle_l	lumbar_extension	lumbar_bending	lumbar_rotation	arm_flex_r	arm_add_r	arm_rot_r	elbow_flex_r	pro_sup_r	arm_flex_l	arm_add_l	arm_rot_l	elbow_flex_l	pro_sup_l
      0.00000000	      2.89901714	     -2.52714812	     -0.29213703	      0.89544448	      0.82371858	      0.67419902	     19.92575740	      1.65854476	     -0.77515135	     18.99449813	      0.33151653	     -2.26279093	    -14.43891771	     -6.79475398	    -11.34940122	      0.76716891	      5.14396946	      2.39221296	      0.04175199	     17.41719097	     -5.68132595	     -6.79475398	     -7.72875398	      3.08906540	     -4.55508714	     -2.97573640	    -11.99749140	    -12.49070141	     14.61361586	     88.18219896	     13.69880918	    -14.37529924	      4.65706810	     25.45054916	     89.53005440
      0.01666670	      2.48225532	     -1.96631838	     -0.00559627	      0.89597293	      0.81799015	      0.67249292	     21.23402959	      0.68154431	     -2.35181936	     15.66990912	      0.27349151	     -1.18880514	    -10.60145592	     -6.97272125	    -11.24540779	      1.51656992	      4.25032113	      4.62784914	      0.08077120	     18.63658638	     -6.19767789	     -6.97272125	     -7.09895459	      2.71572128	     -5.30500328	     -2.52806421	    -12.06428888	    -16.52928618	     13.38236955	     92.61512400	     13.76856137	    -14.54801361	      1.41849299	     26.48000574	     91.46416416
      0.03333330	      0.27994056	     -1.08426221	      0.93438603	      0.89735840	      0.81262353	      0.67230957	     23.06669735	     -0.50628212	     -2.03836458	      9.86615956	      0.17219697	     -1.29489532	     -9.47354478	     -6.98178956	     -9.78128289	      2.26675650	      4.89701153	      5.63407090	      0.09833309	     19.27093623	     -6.04073839	     -6.98178956	     -3.82016106	      1.83088349	     -6.87098846	     -2.60130200	    -12.21277157	    -16.84506602	     11.92078364	     91.88509913	     13.47991697	    -15.49320585	      1.25222935	     25.65765759	     90.54050209
      0.05000000	     -1.13744505	     -0.65114065	      1.77488478	      0.89828973	      0.80771996	      0.67221671	     24.38666533	     -1.34678303	     -1.72273268	      5.65228202	      0.09865093	      0.19182483	     -8.43866153	     -7.18857203	     -9.26476230	      2.51954549	      4.93291543	      6.57461638	      0.11474870	     20.16185127	     -4.67982854	     -7.18857203	     -1.55347327	      1.30410045	     -8.41988769	     -2.49360338	    -12.40078064	    -18.84471493	     11.37994524	     98.03047627	     12.64099056	    -16.02778620	     -0.97773686	     25.78915269	     95.30563614
      0.06666670	     -2.22708208	     -0.11678179	      2.36195745	      0.89826029	      0.80267231	      0.67352789	     25.49265782	     -2.20527763	     -1.28003518	      2.76102433	      0.04818897	      1.55353871	     -7.18867136	     -7.20241219	     -9.07515487	      2.89011063	      4.88453820	      7.76693640	      0.13555861	     20.77240832	     -3.63675841	     -7.20241219	      0.30681601	      0.52876436	     -9.33144514	     -2.88415093	    -12.49959373	    -19.21734665	     11.06232962	     97.95916047	     12.24418254	    -16.58053579	     -1.19308932	     25.65333324	     95.34665795
      0.08333330	     -3.18197761	      0.24323657	      2.76405916	      0.89741286	      0.79679350	      0.67556186	     26.65699798	     -2.82893041	     -1.04439581	      1.45875819	      0.02546013	      2.47284898	     -6.43485161	     -7.21359286	     -8.92137127	      3.05567523	      4.89725320	      9.10064229	      0.15883617	     20.97257424	     -2.63395598	     -7.21359286	      1.90739753	     -0.05233194	     -9.97750171	     -3.27553223	    -12.72610316	    -19.59806959	     10.63451668	     97.94434134	     11.85286645	    -17.03494833	     -1.55083337	     25.75543660	     95.43588348
      0.10000000	     -3.87390615	      0.33775484	      3.06596062	      0.89659908	      0.79131931	      0.67730380	     27.36972873	     -3.07844439	     -1.11426556	      1.21552562	      0.02121492	      2.62456308	     -6.06435975	     -7.22491884	     -8.84294798	      2.89452057	      4.73670828	     10.78005502	      0.18814745	     20.76756251	     -1.96084334	     -7.22491884	      3.09688714	     -0.27678319	    -10.55689077	     -3.67919252	    -13.11735876	    -20.13854337	     10.08154596	     97.85836156	     11.45023042	    -17.31091216	     -2.06940903	     25.87292659	     95.50923566
      0.11666670	     -4.03686191	      0.05138261	      3.28606220	      0.89589716	      0.78806983	      0.67880611	     27.15947885	     -2.75496210	     -1.45556538	      1.69458311	      0.02957605	      1.78215175	     -6.27173038	     -7.23106861	     -9.03979129	      2.26597417	      4.47019503	     12.90097924	      0.22516456	     19.97380610	     -1.75965113	     -7.23106861	      3.50824991	      0.08552297	    -10.99028714	     -3.92666435	    -13.66074623	    -20.55994821	      9.65997659	     97.79935920	     11.15528739	    -17.30710392	     -2.41467170	     25.75751263	     95.58768324
      0.13333330	     -4.08627222	     -0.38816730	      3.28696705	      0.89581845	      0.78649645	      0.68080902	     26.79596927	     -2.02910590	     -1.69718495	      3.07518954	      0.05367218	      0.11389153	     -7.12046921	     -7.25265658	     -8.99405542	      1.45036240	      3.93928836	     15.58624504	      0.27203129	     18.44330056	     -1.76907117	     -7.25265658	      3.69581716	      0.70178630	    -11.54954072	     -3.54471542	    -14.10285106	    -22.14539474	      8.95656689	     97.33242337	     10.45684610	    -17.03420882	     -4.13835082	     25.48399818	     96.10772063
      0.15000000	     -3.91697615	     -0.95263611	      3.17579791	      0.89742007	      0.78520197	      0.68268411	     26.32149298	     -1.08084847	     -2.25498618	      5.06184022	      0.08834578	     -1.42683019	     -7.45542702	     -7.26161458	     -8.72333861	      0.51771065	      3.44084015	     18.95776218	      0.33087537	     16.17158479	     -2.22529068	     -7.26161458	      3.44375896	      1.61211671	    -11.45001552	     -3.73499199	    -14.59115943	    -22.32752904	      9.43327505	     96.94665534	     10.04964104	    -16.65184622	     -4.20689421	     25.20497269	     95.87770770
      0.16666670	     -3.58286572	     -1.50637684	      3.06488076	      0.90061270	      0.78512970	      0.68431593	     25.79931757	     -0.11365563	     -2.39262020	      7.29770243	      0.12736894	     -2.87182884	     -8.57295440	     -7.27401926	     -8.26911775	     -0.45510871	      2.92446619	     22.78314042	      0.39764081	     12.99872698	     -2.88843698	     -7.27401926	      2.99650553	      2.49997948	    -11.33284279	     -3.51755024	    -15.00928812	    -22.46618239	      9.22262610	     96.72171038	      9.92151631	    -16.18265945	     -4.39195028	     23.94572371	     95.90698058
      0.18333330	     -3.21100669	     -2.13623675	      2.91642608	      0.90533188	      0.78735005	      0.68685869	     25.31819783	      0.92976400	     -2.76974116	      9.69500197	      0.16920971	     -3.18888025	     -8.97454169	     -7.27863064	     -7.83522667	     -1.70423744	      1.93625234	     26.49958496	      0.46250501	      9.52673925	     -2.46185436	     -7.27863064	      2.48341537	      3.38536399	    -11.10867307	     -3.67235630	    -15.39291471	    -22.44981625	      9.61608009	     96.53938098	      9.37965453	    -15.77987312	     -4.39916203	     23.48996529	     95.79859615
      0.20000000	     -2.82991102	     -2.93323712	      2.90058813	      0.91123945	      0.79130580	      0.69112250	     24.68520161	      2.10880196	     -3.08888179	     11.92371786	      0.20810814	     -2.77601743	     -9.57835574	     -7.28212078	     -7.30213896	     -3.28699388	      1.02204320	     30.26763656	      0.52826991	      5.88599321	     -1.82331029	     -7.28212078	      2.18028859	      4.39394193	    -10.78610782	     -3.76547672	    -15.58031699	    -22.31570505	      9.91403268	     96.45102595	      8.61813089	    -15.14927695	     -4.39671004	     22.79642172	     95.72310532
      0.21666670	     -3.28172955	     -4.03062555	      2.91886047	      0.91799547	      0.79440966	      0.69621850	     24.85235952	      3.53489522	     -3.48432884	     14.14771300	      0.24692417	     -1.66829250	    -10.25278654	     -7.29636723	     -5.48939328	     -5.24249327	      0.32362353	     34.63284472	      0.60445717	      2.49169787	     -1.15456712	     -7.29636723	      3.53132853	      5.56801033	    -10.46191476	     -4.29969164	    -16.03519539	    -20.42520822	      9.58590333	     97.30518304	      8.42395520	    -13.99006596	     -4.73472911	     19.00065024	     96.25571944
      0.23333330	     -2.80561348	     -5.12053928	      2.87183705	      0.92359677	      0.79839489	      0.70052082	     23.58321872	      5.14254293	     -3.49099473	     15.65705143	      0.27326710	     -0.15845963	    -10.87404822	     -7.29940515	     -4.53447919	     -7.26854860	     -0.44841647	     38.91773957	      0.67924269	     -1.83100478	     -0.65121247	     -7.29940515	      3.42750884	      6.70870672	    -10.02375834	     -4.50679491	    -16.12157008	    -20.05906077	      9.85004659	     97.33458977	      7.26121329	    -13.22191677	     -4.63350047	     18.37021043	     96.24059086
      0.25000000	     -3.27295100	     -6.33544059	      3.01413029	      0.92736858	      0.80084408	      0.70290643	     22.97263602	      6.68715894	     -3.92033295	     16.52850756	      0.28847688	      1.55295363	    -10.81507809	     -7.34200604	     -2.02355769	     -9.21482489	     -0.48459105	     43.73623265	      0.76334126	     -5.93041502	     -1.10365373	     -7.34200604	      5.02193416	      7.90566928	     -9.98608784	     -5.01802566	    -16.93585221	    -12.44768058	      9.72621139	     99.83501429	      6.58464610	    -12.30388618	     -3.17374558	     15.07918719	     97.77392829
      0.26666670	     -3.53477675	     -7.24623168	      3.24782500	      0.92879514	      0.80374855	      0.70531966	     21.80507818	      7.95129677	     -4.12761279	     16.67327347	      0.29100352	      3.12655042	    -10.86062875	     -7.35070738	      0.41870054	    -10.67663465	     -0.19327287	     48.19964893	      0.84124257	     -9.35998831	     -1.64786467	     -7.35070738	      6.15935132	      8.72183794	     -9.96464527	     -5.30277301	    -17.00910732	    -11.77729478	      9.87519316	     99.62711524	      5.41909934	    -11.58230002	     -3.11953171	     13.78068705	     97.64215326
      0.28333330	     -3.64328969	     -7.91075093	      3.55591018	      0.92840646	      0.80708904	      0.70864645	     20.23423358	      8.98392249	     -4.22767345	     16.21550525	      0.28301396	      4.34851333	    -11.01024442	     -7.35633000	      2.81660886	    -11.66255128	      0.40007402	     52.21087869	      0.91125174	    -11.73605907	     -2.51644119	     -7.35633000	      6.97713271	      9.21506188	     -9.82613182	     -5.60398715	    -16.99317994	    -11.16331897	      9.97185896	     99.47885063	      4.51361309	    -11.03274231	     -2.90993755	     12.67610653	     97.52015664
      0.30000000	     -4.10424313	     -8.12909106	      3.69347707	      0.92607837	      0.81002363	      0.71328279	     18.98373401	      9.58892256	     -4.09418027	     15.63080724	      0.27280905	      5.49082081	    -11.10741262	     -7.37000184	      5.76445595	    -11.94317086	      1.01290892	     55.79195701	      0.97375335	    -12.99427596	     -3.66234160	     -7.37000184	      8.12266161	      9.11689462	     -9.51977327	     -5.84391044	    -16.83112681	     -9.29799765	      9.95060236	     99.22951399	      3.87938676	    -10.71392238	     -1.83765084	     10.85840916	     97.37943623
